<svg width="266" height="28" viewBox="0 0 266 28" fill="none" xmlns="http://www.w3.org/2000/svg">
<g clip-path="url(#clip0_34_124)">
<path d="M250.732 0.464233L250.613 0.723771C250.074 1.90429 238.841 27.3464 238.841 27.3879C238.841 27.4175 239.727 27.4305 240.811 27.4166L242.78 27.3913L244.261 23.9733L245.742 20.5552H252.482H259.221L259.708 21.679C259.977 22.297 260.649 23.8457 261.202 25.1204L262.208 27.4382H264.158C265.23 27.4382 266.107 27.4066 266.107 27.3679C266.107 27.3293 263.442 21.2716 260.185 13.9064L254.262 0.51508L252.497 0.489657L250.732 0.464233ZM252.457 5.04097C252.504 4.99525 257.12 15.5527 257.63 16.8703C257.695 17.0375 257.518 17.0435 252.475 17.0435H247.252L247.424 16.6455C247.519 16.4266 248.676 13.7402 249.995 10.6756C251.314 7.61107 252.423 5.07545 252.457 5.04097Z" fill="#E71A3B"/>
<path d="M180.715 0.47168L174.832 13.7803C171.597 21.1001 168.92 27.1676 168.883 27.2636C168.819 27.4306 168.902 27.438 170.797 27.4361L172.778 27.4341L174.272 23.9712L175.766 20.5083L182.489 20.5087L189.212 20.5091L190.706 23.9725L192.2 27.4357L194.18 27.437L196.16 27.4381L196.045 27.1649C195.982 27.0146 193.305 20.9477 190.097 13.6828L184.263 0.473892L182.489 0.472794L180.715 0.47168ZM182.425 5.13091C182.557 5.1038 182.949 5.97974 185.036 10.8305C186.428 14.0674 187.596 16.7894 187.63 16.8796C187.688 17.0344 187.406 17.0435 182.499 17.0435C179.643 17.0435 177.307 17.0187 177.307 16.9884C177.307 16.9241 182.223 5.49106 182.391 5.16493C182.4 5.1462 182.411 5.13371 182.425 5.13091Z" fill="#E71A3B"/>
<path d="M40.7418 0.46582L35.1228 13.788C32.0324 21.1152 29.4762 27.1841 29.442 27.2742C29.3836 27.4285 29.5874 27.4381 32.9261 27.4381H36.4724L37.3482 25.1438L38.2239 22.8495L43.918 22.8729L49.6121 22.8963L50.501 25.1666L51.3899 27.4372L54.9148 27.4377C56.8535 27.438 58.4397 27.4058 58.4397 27.3662C58.4397 27.3267 55.907 21.269 52.8115 13.9047L47.1832 0.515021L43.9625 0.490329L40.7418 0.46582ZM43.9233 8.26455C43.9671 8.31954 47.328 17.014 47.328 17.0723C47.328 17.1606 40.5121 17.1551 40.5098 17.0669C40.5075 16.9778 43.8985 8.23342 43.9233 8.26455V8.26455Z" fill="#0032C5"/>
<path d="M230.531 14.0468V0.655518H232.399H234.266V14.0468V27.4381H232.399H230.531V14.0468Z" fill="#E71A3B"/>
<path d="M200.838 14.0468V0.655518H202.658H204.478L204.502 6.57859L204.526 12.5017L211.926 12.5256L219.326 12.5496V6.60257V0.655518H221.193H223.061V14.0468V27.4381H221.193H219.326V21.6789V15.9197H211.903H204.479V21.6789V27.4381H202.658H200.838V14.0468Z" fill="#E71A3B"/>
<path d="M143.972 0.655518V14.0527V27.4498L151.045 27.4114C157.208 27.3779 158.22 27.3524 158.912 27.2144C161.311 26.7358 162.979 25.907 164.235 24.5688C165.562 23.156 166.162 21.2618 165.924 19.2381C165.663 17.0234 164.525 15.3076 162.688 14.3587C161.955 13.9803 161.688 13.8788 160.876 13.6686L160.459 13.5605L161.11 13.2558C163.387 12.1884 164.639 10.1479 164.644 7.49164C164.648 5.41918 163.944 3.82422 162.481 2.59372C161.847 2.0603 160.525 1.38096 159.612 1.1199C158.06 0.675824 157.682 0.656258 150.625 0.655884L143.972 0.655518ZM147.707 3.82154L152.259 3.86544C157.304 3.914 157.59 3.9432 158.884 4.54181C160.246 5.17215 161.032 6.25998 161.126 7.64601C161.271 9.77643 160.109 11.2925 157.791 11.9992C157.11 12.2068 156.967 12.2134 152.399 12.2449L147.707 12.2771V8.0493V3.82154ZM147.707 15.6287L152.959 15.662C158.833 15.6992 158.701 15.6859 160.183 16.3938C162.169 17.3424 162.865 19.3599 161.91 21.4053C161.378 22.5468 160.165 23.4293 158.486 23.8975C157.772 24.0968 157.562 24.1057 152.726 24.1384L147.707 24.1722V19.9006V15.6287Z" fill="#E71A3B"/>
<path d="M96.1017 0.46582L90.4869 13.788C87.3988 21.1152 84.8451 27.1841 84.812 27.2742C84.7552 27.4285 84.9596 27.4381 88.2926 27.4381H91.8334L92.7144 25.1431L93.5957 22.848L99.2863 22.8721L104.977 22.8963L105.867 25.1672L106.756 27.4381H110.284C112.224 27.4381 113.811 27.4065 113.809 27.3679C113.808 27.3292 111.274 21.2715 108.177 13.9063L102.546 0.515021L99.3237 0.490329L96.1017 0.46582ZM99.2697 8.279C99.2869 8.26226 102.427 16.3102 102.662 16.9732C102.716 17.1274 102.514 17.1371 99.2493 17.1371C97.3405 17.1371 95.7985 17.1055 95.8223 17.0669C95.8461 17.0282 96.6265 15.0398 97.5567 12.6483C98.4868 10.2568 99.2577 8.2907 99.2697 8.279Z" fill="#0032C5"/>
<path d="M125.297 27.895C121.667 27.4767 118.663 25.892 116.964 23.4983C116.112 22.2988 115.388 20.4232 115.248 19.0533L115.186 18.4457L118.524 18.4703L121.863 18.4949L122.023 19.01C122.255 19.7547 122.46 20.1069 122.985 20.6641C123.87 21.6025 124.984 22.111 126.565 22.298C128.592 22.5378 130.446 21.9382 131.01 20.8602C131.264 20.3746 131.289 19.4875 131.061 19.0498C130.828 18.6012 130.229 18.1158 129.633 17.8923C129.334 17.7801 127.727 17.3933 126.06 17.0326C124.394 16.672 122.696 16.2709 122.287 16.1414C119.617 15.2953 117.841 13.9844 116.982 12.2254C116.48 11.1952 116.328 10.549 116.268 9.17721C116.064 4.53078 119.026 1.17523 124.176 0.217604C125.409 -0.0116359 128.349 -0.0126744 129.592 0.215693C131.016 0.47732 132.088 0.816663 133.187 1.35356C134.371 1.93211 135.191 2.52638 135.998 3.39283C137.272 4.75967 137.905 6.18182 138.313 8.59193L138.365 8.89628H135.012H131.659L131.505 8.36182C131.272 7.55865 130.934 6.95531 130.438 6.45779C129.642 5.66013 128.723 5.33775 127.243 5.33775C125.749 5.33775 124.732 5.65436 124.059 6.32932C123.6 6.78963 123.4 7.24306 123.354 7.92865C123.282 8.9955 123.815 9.76083 124.972 10.2506C125.176 10.3371 126.772 10.7424 128.518 11.1512C132.734 12.1381 133.901 12.5318 135.297 13.4379C137.509 14.8728 138.467 16.8302 138.343 19.6626C138.215 22.589 136.868 24.8289 134.338 26.3213C132.094 27.6451 128.523 28.2667 125.297 27.895Z" fill="#0032C5"/>
<path d="M69.9249 27.9013C65.6204 27.3663 62.4006 25.3553 60.833 22.2227C60.3705 21.2985 59.8404 19.4288 59.8404 18.7218V18.4458L63.1594 18.4704L66.4784 18.495L66.694 19.1136C67.3256 20.9267 68.8982 22.0365 71.2003 22.294C72.6471 22.4558 74.1036 22.2015 74.9193 21.6447C76.1594 20.7982 76.1927 19.0633 74.9841 18.2605C74.3539 17.8419 74.0276 17.7481 70.7327 17.0387C69.0457 16.6755 67.2322 16.236 66.7028 16.0621C64.1489 15.2231 62.4711 13.9587 61.622 12.2329C61.1418 11.2571 60.9666 10.516 60.8996 9.17723C60.7464 6.11368 62.0101 3.55938 64.5079 1.88382C67.2712 0.0301327 71.5761 -0.504442 75.5661 0.510632C78.6319 1.29058 81.0374 3.17378 82.1712 5.68163C82.468 6.33804 82.8354 7.66785 82.9365 8.45148L82.9939 8.8963H79.6408H76.2877L76.1328 8.36183C75.5324 6.29066 74.1895 5.33777 71.8708 5.33777C70.4062 5.33777 69.5073 5.60168 68.8052 6.23787C68.2089 6.77808 68.0155 7.22148 68.0129 8.05349C68.0103 8.89676 68.2427 9.38885 68.8417 9.80822C69.564 10.314 69.737 10.3671 73.4811 11.2338C77.3947 12.1398 78.6115 12.565 80.0645 13.5346C81.4494 14.4587 82.3636 15.7015 82.7836 17.2307C83.0222 18.0992 83.0169 20.4766 82.7745 21.398C81.8935 24.7463 79.073 27.0188 74.8738 27.7636C73.8273 27.9492 70.9537 28.0292 69.9249 27.9013Z" fill="#0032C5"/>
<path d="M13.5891 27.9072C5.9487 26.9429 0.891552 20.9825 1.23321 13.3445C1.39243 9.78492 2.66103 6.72833 4.97855 4.32034C6.13974 3.11381 7.17483 2.35798 8.7172 1.59037C10.5661 0.670188 12.064 0.265596 14.234 0.100193C20.3911 -0.369101 25.6916 2.6986 27.855 7.98343C28.1852 8.79001 28.7029 10.563 28.6297 10.6364C28.5935 10.6727 22.2602 11.7045 22.0687 11.7053C22.0168 11.7055 21.8932 11.4212 21.7942 11.0736C21.1295 8.73866 19.4395 7.04854 17.2144 6.49328C16.2479 6.2521 14.2796 6.27487 13.3125 6.53841C10.734 7.24106 8.85723 9.22571 8.18702 11.9584C7.9272 13.0178 7.90541 14.978 8.14262 15.9528C8.51872 17.4983 9.15353 18.6657 10.1615 19.6655C11.2144 20.7098 12.3019 21.2919 13.7688 21.5961C14.6563 21.7802 16.5655 21.7316 17.3768 21.5042C19.5459 20.8964 21.1957 19.1954 21.802 16.9417C21.8909 16.6114 21.9708 16.3298 21.9795 16.316C21.9882 16.3023 23.451 16.5235 25.2302 16.8077C27.0093 17.0919 28.5091 17.3244 28.5631 17.3244C28.7081 17.3244 28.593 17.868 28.1839 19.115C27.5123 21.1627 26.6028 22.6547 25.1046 24.1667C23.2519 26.0366 21.0804 27.1736 18.3076 27.7256C17.186 27.9489 14.6825 28.0452 13.5891 27.9072Z" fill="#0032C5"/>
</g>
<defs>
<clipPath id="clip0_34_124">
<rect width="265" height="28" fill="white" transform="translate(0.961731)"/>
</clipPath>
</defs>
</svg>
