<svg width="149" height="72" viewBox="0 0 149 72" fill="none" xmlns="http://www.w3.org/2000/svg">
<mask id="mask0_11_41" style="mask-type:alpha" maskUnits="userSpaceOnUse" x="0" y="0" width="149" height="72">
<path d="M148.148 0H0V71.9283H148.148V0Z" fill="white"/>
</mask>
<g mask="url(#mask0_11_41)">
<path d="M24.5284 62.0262V53.9634H35.177C35.492 53.9634 35.7747 54.0422 36.0249 54.1997C36.2844 54.348 36.4883 54.5519 36.6366 54.8113C36.7849 55.0615 36.859 55.3397 36.859 55.6454V62.0262H35.733V55.6454C35.733 55.4972 35.6774 55.3721 35.5662 55.2701C35.455 55.1589 35.3252 55.1033 35.177 55.1033H31.8267C31.6784 55.1033 31.5487 55.1589 31.4374 55.2701C31.3356 55.3721 31.2846 55.4972 31.2846 55.6454V62.0262H30.1308V55.6454C30.1308 55.4972 30.0751 55.3721 29.9639 55.2701C29.862 55.1589 29.7369 55.1033 29.5886 55.1033H26.2244C26.0761 55.1033 25.9464 55.1589 25.8352 55.2701C25.7332 55.3721 25.6822 55.4972 25.6822 55.6454V62.0262H24.5284ZM53.576 62.0262V53.9634H54.7159V62.0262H53.576ZM53.4927 53.1293L53.9791 51.197H55.0773L54.6048 53.1293H53.4927ZM72.9389 62.0262C72.6238 62.0262 72.3364 61.9521 72.077 61.8038C71.8268 61.6462 71.6229 61.4423 71.4653 61.1921C71.317 60.9327 71.2429 60.65 71.2429 60.3441V55.6454C71.2429 55.3397 71.317 55.0615 71.4653 54.8113C71.6229 54.5519 71.8268 54.348 72.077 54.1997C72.3364 54.0422 72.6238 53.9634 72.9389 53.9634H78.3187V51.3221H79.4587V62.0262H72.9389ZM72.9389 60.8863H77.7766C77.9249 60.8863 78.05 60.8353 78.1519 60.7333C78.2631 60.6222 78.3187 60.4924 78.3187 60.3441V55.6454C78.3187 55.4972 78.2631 55.3721 78.1519 55.2701C78.05 55.1589 77.9249 55.1033 77.7766 55.1033H72.9389C72.7906 55.1033 72.6608 55.1589 72.5497 55.2701C72.4477 55.3721 72.3967 55.4972 72.3967 55.6454V60.3441C72.3967 60.4924 72.4477 60.6222 72.5497 60.7333C72.6608 60.8353 72.7906 60.8863 72.9389 60.8863ZM96.2098 62.0262V53.9634H97.3497V62.0262H96.2098ZM96.2098 52.462V51.3221H97.3497V52.462H96.2098ZM115.587 62.0262C115.28 62.0262 114.998 61.9521 114.738 61.8038C114.488 61.6462 114.284 61.4423 114.127 61.1921C113.978 60.9327 113.904 60.65 113.904 60.3441V57.4249H120.966V55.6454C120.966 55.4972 120.91 55.3721 120.799 55.2701C120.698 55.1589 120.572 55.1033 120.424 55.1033H113.904V53.9634H120.424C120.739 53.9634 121.022 54.0422 121.272 54.1997C121.531 54.348 121.736 54.5519 121.883 54.8113C122.041 55.0615 122.12 55.3397 122.12 55.6454V62.0262H115.587ZM115.587 60.8863H120.966V58.5648H115.044V60.3441C115.044 60.4924 115.096 60.6222 115.197 60.7333C115.308 60.8353 115.438 60.8863 115.587 60.8863Z" fill="white"/>
<mask id="mask1_11_41" style="mask-type:alpha" maskUnits="userSpaceOnUse" x="0" y="0" width="149" height="72">
<path d="M0 0H148.148V71.9283H0V0Z" fill="white"/>
</mask>
<g mask="url(#mask1_11_41)">
<path d="M31.6627 40.5986H51.9773V48.14H30.3324C22.8494 48.14 16.7833 42.074 16.7833 34.5911V12.9462H24.325V33.2609C24.325 37.3133 27.6102 40.5986 31.6627 40.5986Z" fill="white"/>
<path d="M89.6245 12.9462V20.4877H66.9743C64.2118 20.4877 61.9724 22.7271 61.9724 25.4898V26.7723H87.1108V34.3139H61.9724V40.5986H89.6245V48.1401H54.4307V24.5588C54.4307 18.1453 59.6298 12.9462 66.0432 12.9462H89.6245Z" fill="white"/>
<path d="M126.308 40.5986V26.5907C126.308 23.22 123.576 20.4878 120.204 20.4878H99.6196V40.5986H126.308ZM133.849 25.5155V35.5709C133.849 43.9506 129.659 48.14 121.28 48.14H92.0781V12.9462H121.28C129.659 12.9462 133.849 17.1362 133.849 25.5155Z" fill="white"/>
<path d="M97.3394 26.7701H89.7963V34.3132H97.3394V26.7701Z" fill="#E85453"/>
<path d="M108.937 26.7701H101.394V34.3132H108.937V26.7701Z" fill="#B7D140"/>
<path d="M120.534 26.7701H112.991V34.3132H120.534V26.7701Z" fill="#00A6DE"/>
</g>
</g>
</svg>
